<?xml version="1.0" encoding="utf-8"?><svg version="1.1" id="Layer_1" xmlns="http://www.w3.org/2000/svg" xmlns:xlink="http://www.w3.org/1999/xlink" x="0px" y="0px" viewBox="0 0 98.66 122.88" style="enable-background:new 0 0 98.66 122.88" xml:space="preserve"><style type="text/css">.st0{fill-rule:evenodd;clip-rule:evenodd;}</style><g><path class="st0" d="M0.03,45.73l5.64,1.78c-0.01,0.26-0.01,0.52-0.01,0.78h0.01l-0.5,26.57C5,84.05,6.34,90.66,9.55,96.62 c3.16,5.87,8.06,10.95,15.07,17.17c7.01,6.22,15.66,9.09,24.44,9.09c6.04,0,12.15-1.37,17.82-3.94 c5.65-2.57,10.88-6.36,15.19-11.21c6.92-7.8,11.43-18.33,11.43-30.94V54.22c1.18,0.18,2.18,0,3-0.58c1.58-1.12,2.06-4.09,2.15-7.5 C100.16-10.96-2.05-19.5,0.03,45.73L0.03,45.73z M10.61,50.4c0.92-0.57,1.97-1.01,3.13-1.33h68.96c2.28,0.19,4.22,0.72,5.71,1.72 c-0.18-2.65-0.62-5.14-1.27-7.47c-3.01-2.67-7.23-3.16-12.01-2.62c-22.12,1.67-41.97,0.44-58.94-4.44 c-1.63,3.69-3.4,7.01-5.43,9.67c-0.05,0.77-0.08,1.56-0.08,2.36h-0.01l0,0.04L10.61,50.4L10.61,50.4z M87.96,83.84 c-1.49,0.71-3.4,0.9-5.67,0.66H68.3c-9.08,0-10.36-5.29-14.28-7.8c-2.6-1.67-6.45-1.72-9.15-0.27c-4.32,2.31-5.56,7.79-15.53,8.35 H13.87c-1.2-0.11-2.29-0.37-3.24-0.82c0.57,3.92,1.65,7.24,3.31,10.3c2.83,5.26,7.4,9.96,13.98,15.8 c6.03,5.35,13.52,7.83,21.14,7.83c5.34,0,10.75-1.21,15.77-3.5c5.04-2.29,9.69-5.66,13.51-9.96 C83.16,98.99,86.67,92.04,87.96,83.84L87.96,83.84z M39.91,100.16c-1.21-0.66-1.65-2.18-0.98-3.38c0.66-1.21,2.18-1.65,3.38-0.98 c2.29,1.27,4.5,1.95,6.62,2c2.06,0.04,4.09-0.53,6.1-1.76c1.17-0.72,2.7-0.36,3.42,0.81c0.72,1.17,0.36,2.7-0.81,3.42 c-2.85,1.76-5.79,2.56-8.8,2.5C45.87,102.7,42.89,101.8,39.91,100.16L39.91,100.16z M83.9,66.91c-0.42-9.73-2.86-12.84-5.88-12.89 c1.52,7.74,2.08,15.73-0.1,25.19C81.29,79.44,83.48,75.42,83.9,66.91L83.9,66.91z"/></g></svg>